<svg width="900" height="135" viewBox="0 0 900 135" fill="none" xmlns="http://www.w3.org/2000/svg">
<path d="M855.396 5.18652H900V134.85H855.396V5.18652Z" fill="black"/>
<path d="M722.474 24.3768H767.078V134.85H722.474V24.3768ZM675.795 5.18652H813.757V44.9501H675.795V5.18652Z" fill="black"/>
<path d="M589.538 5.18652H634.142V134.85H589.538V5.18652Z" fill="black"/>
<path d="M477.547 114.45H459.222L505.382 5.18652H552.061L493.28 134.85H442.452L383.671 5.18652H431.387L477.547 114.45Z" fill="black"/>
<path d="M253.153 60.6826H296.72C301.1 60.6826 304.5 59.6453 306.921 57.5707C309.341 55.4961 310.551 52.4994 310.551 48.5807C310.551 44.6619 309.341 41.6653 306.921 39.5906C304.5 37.516 301.1 36.4787 296.72 36.4787H246.93L266.984 16.424V134.85H222.38V5.18652H303.636C314.009 5.18652 323.057 7.03063 330.779 10.7188C338.616 14.2918 344.667 19.3055 348.932 25.7598C353.311 32.2142 355.501 39.8212 355.501 48.5807C355.501 57.1097 353.311 64.659 348.932 71.2286C344.667 77.683 338.616 82.6966 330.779 86.2696C323.057 89.8426 314.009 91.629 303.636 91.629H253.153V60.6826ZM268.367 74.1676H317.64L360.688 134.85H309.687L268.367 74.1676Z" fill="black"/>
<path d="M207.462 0L159.263 31.5585C175.547 59.7657 171.446 96.0724 146.357 117.496C125.748 135.093 88.2518 139.534 66.4763 121.792C65.4309 120.936 64.0237 120.412 64.3373 118.716L141.524 65.806L140.334 65.4184L0 134.85L47.9012 103.364C46.5744 97.7844 43.1087 93.1249 41.412 87.2138C24.5979 28.5544 87.3511 -19.5343 139.345 12.2826C140.302 12.8721 143.414 14.3822 143.117 15.7389L66.3155 71.0631L207.454 0.0161511L207.462 0Z" fill="black"/>
</svg>
